<svg version="1.1" id="Layer_1" xmlns="http://www.w3.org/2000/svg" xmlns:xlink="http://www.w3.org/1999/xlink" x="0px" y="0px"
	 width="100%" viewBox="0 0 512 512" enable-background="new 0 0 512 512" xml:space="preserve">
<path fill="#000000" opacity="1.000000" stroke="none" 
	d="
M27.000000,513.000000 
	C18.337187,513.000000 9.674373,513.000000 1.008670,513.000000 
	C1.005780,342.413055 1.005780,171.826126 1.005780,1.000000 
	C149.354141,1.000000 297.708405,1.000000 446.873169,1.307059 
	C442.726227,2.944279 437.812164,4.472950 432.803467,5.568823 
	C415.018738,9.460005 397.214111,13.263520 379.386383,16.952032 
	C375.862305,17.681150 371.847382,18.433773 371.591797,22.299593 
	C371.397888,25.231878 372.968964,28.962059 374.993103,31.233677 
	C381.391113,38.414036 388.371185,45.075745 394.952148,52.230358 
	C348.866394,98.497314 302.947327,144.464691 257.069214,190.472916 
	C255.204224,192.343216 253.792938,192.400787 251.477585,191.046295 
	C229.539124,178.212448 207.536255,165.487946 185.498749,152.824524 
	C177.358017,148.146637 172.589035,148.912994 165.947250,155.553711 
	C139.439011,182.057648 112.934410,208.565231 86.429848,235.072861 
	C81.246765,240.256546 75.966133,245.347916 70.919662,250.661514 
	C66.010345,255.830688 66.385254,263.110321 71.539909,268.019440 
	C76.539284,272.780670 84.195999,272.280457 89.780533,266.702759 
	C118.188988,238.329300 146.610321,209.968430 174.905960,181.482773 
	C177.838806,178.530243 179.962387,177.962997 183.770706,180.227524 
	C204.470856,192.536255 225.549332,204.216736 246.101883,216.761749 
	C254.196747,221.702774 262.369324,220.453918 269.132599,213.604065 
	C307.291168,174.957001 345.810089,136.665497 384.240814,98.287537 
	C393.783844,88.757637 403.455322,79.356354 413.371246,70.039474 
	C420.604706,77.106606 427.494507,84.071075 434.479462,90.938751 
	C438.792633,95.179520 445.676636,93.271812 446.990845,87.438461 
	C451.698395,66.542870 456.586945,45.681408 460.812683,24.687401 
	C462.364807,16.976318 466.491791,9.118195 462.000000,1.000000 
	C478.987366,1.000000 495.974731,1.000000 512.960693,1.000002 
	C512.959290,171.666672 512.959290,342.333344 512.959290,513.000000 
	C504.591492,513.000000 496.264404,513.000000 487.492126,512.610657 
	C487.691437,510.013275 488.873749,507.810333 488.894775,505.596375 
	C489.051147,489.127472 489.060120,472.655701 488.927856,456.186371 
	C488.884766,450.825470 485.812958,448.060638 480.443176,448.019989 
	C470.960754,447.948242 461.477661,447.965240 451.997101,447.481812 
	C451.999664,342.538208 452.000336,238.057938 451.999420,133.577652 
	C451.999359,126.631500 449.451813,124.014091 442.598267,124.005302 
	C427.934387,123.986496 413.270447,123.990181 398.606537,124.003616 
	C391.696838,124.009941 389.004395,126.661446 389.004395,133.500702 
	C389.004578,238.314224 389.013580,343.127747 388.551208,447.956604 
	C382.053711,447.956238 376.025543,447.940521 369.998474,447.463226 
	C369.999725,366.348602 369.999939,285.695557 369.999847,205.042511 
	C369.999847,197.435623 367.619354,195.005432 360.127441,195.001755 
	C345.796509,194.994736 331.465607,194.996948 317.134674,195.000885 
	C309.560394,195.002960 307.012756,197.432602 307.011902,204.948151 
	C307.002899,285.934387 307.020325,366.920624 306.560852,447.931091 
	C300.063263,447.942322 294.035339,447.929291 288.004150,447.455383 
	C288.000610,396.513000 288.003571,346.031494 287.995941,295.549988 
	C287.994934,288.892639 286.132660,287.011871 279.541290,287.004913 
	C264.880005,286.989380 250.218704,286.999847 235.557404,287.000092 
	C227.192810,287.000244 224.999802,289.249359 224.999390,297.908844 
	C224.996979,347.890533 225.002747,397.872192 224.538483,447.892059 
	C218.050354,447.932190 212.029465,447.934143 206.004822,447.473602 
	C206.000702,377.080444 206.001053,307.149841 205.998993,237.219223 
	C205.998779,229.691269 204.343994,228.020096 196.720627,228.007019 
	C182.235046,227.982178 167.749374,227.987015 153.263763,228.005508 
	C146.666931,228.013931 144.000961,230.665909 144.000946,237.137863 
	C144.000656,307.401459 144.002411,377.665070 143.535431,447.947357 
	C137.045456,447.946106 131.023651,447.926178 125.001007,447.446167 
	C125.000092,419.172058 125.006042,391.357941 124.995529,363.543854 
	C124.993019,356.904694 123.113152,355.011749 116.520073,355.004974 
	C101.363899,354.989441 86.207710,354.995758 71.051521,355.001831 
	C63.722172,355.004761 62.003635,356.702606 62.002285,363.961914 
	C61.997089,391.942566 62.000729,419.923218 61.532951,447.929047 
	C52.426708,447.969696 43.788567,447.978149 35.150475,448.002747 
	C27.519093,448.024475 25.037088,450.439087 25.014082,458.060913 
	C24.971962,472.014923 24.844957,485.971893 25.091871,499.921661 
	C25.169210,504.291016 26.333336,508.641083 27.000000,513.000000 
z"/>
<path fill="#333333" opacity="1.000000" stroke="none" 
	d="
M27.468658,513.000000 
	C26.333336,508.641083 25.169210,504.291016 25.091871,499.921661 
	C24.844957,485.971893 24.971962,472.014923 25.014082,458.060913 
	C25.037088,450.439087 27.519093,448.024475 35.150475,448.002747 
	C43.788567,447.978149 52.426708,447.969696 61.998276,448.002075 
	C83.621765,448.002045 104.311806,447.954132 125.001846,447.906219 
	C131.023651,447.926178 137.045456,447.946106 144.000778,448.016663 
	C165.292389,448.023560 185.650482,447.979828 206.008575,447.936127 
	C212.029465,447.934143 218.050354,447.932190 225.003662,447.974243 
	C246.626526,447.984222 267.316956,447.950226 288.007385,447.916260 
	C294.035339,447.929291 300.063263,447.942322 307.025940,447.995300 
	C328.639557,447.998444 349.318481,447.961609 369.997406,447.924805 
	C376.025543,447.940521 382.053711,447.956238 389.017151,448.008850 
	C410.633270,448.012177 431.314056,447.978638 451.994843,447.945099 
	C461.477661,447.965240 470.960754,447.948242 480.443176,448.019989 
	C485.812958,448.060638 488.884766,450.825470 488.927856,456.186371 
	C489.060120,472.655701 489.051147,489.127472 488.894775,505.596375 
	C488.873749,507.810333 487.691437,510.013275 487.023438,512.610657 
	C333.979095,513.000000 180.958206,513.000000 27.468658,513.000000 
z"/>
<path fill="#7DD63E" opacity="1.000000" stroke="none" 
	d="
M461.533875,1.000000 
	C466.491791,9.118195 462.364807,16.976318 460.812683,24.687401 
	C456.586945,45.681408 451.698395,66.542870 446.990845,87.438461 
	C445.676636,93.271812 438.792633,95.179520 434.479462,90.938751 
	C427.494507,84.071075 420.604706,77.106606 413.213257,69.749405 
	C406.876556,63.523228 401.001343,57.730652 395.126099,51.938076 
	C388.371185,45.075745 381.391113,38.414036 374.993103,31.233677 
	C372.968964,28.962059 371.397888,25.231878 371.591797,22.299593 
	C371.847382,18.433773 375.862305,17.681150 379.386383,16.952032 
	C397.214111,13.263520 415.018738,9.460005 432.803467,5.568823 
	C437.812164,4.472950 442.726227,2.944279 447.341858,1.307059 
	C451.689240,1.000000 456.378510,1.000000 461.533875,1.000000 
z"/>
<path fill="#7DD63E" opacity="1.000000" stroke="none" 
	d="
M451.997101,447.481812 
	C431.314056,447.978638 410.633270,448.012177 389.486511,447.993500 
	C389.013580,343.127747 389.004578,238.314224 389.004395,133.500702 
	C389.004395,126.661446 391.696838,124.009941 398.606537,124.003616 
	C413.270447,123.990181 427.934387,123.986496 442.598267,124.005302 
	C449.451813,124.014091 451.999359,126.631500 451.999420,133.577652 
	C452.000336,238.057938 451.999664,342.538208 451.997101,447.481812 
z"/>
<path fill="#1AA1FF" opacity="1.000000" stroke="none" 
	d="
M369.998474,447.463196 
	C349.318481,447.961609 328.639557,447.998444 307.495544,447.971069 
	C307.020325,366.920624 307.002899,285.934387 307.011902,204.948151 
	C307.012756,197.432602 309.560394,195.002960 317.134674,195.000885 
	C331.465607,194.996948 345.796509,194.994736 360.127441,195.001755 
	C367.619354,195.005432 369.999847,197.435623 369.999847,205.042511 
	C369.999939,285.695557 369.999725,366.348602 369.998474,447.463196 
z"/>
<path fill="#FFA721" opacity="1.000000" stroke="none" 
	d="
M206.004822,447.473602 
	C185.650482,447.979828 165.292389,448.023560 144.468948,447.997986 
	C144.002411,377.665070 144.000656,307.401459 144.000946,237.137863 
	C144.000961,230.665909 146.666931,228.013931 153.263763,228.005508 
	C167.749374,227.987015 182.235046,227.982178 196.720627,228.007019 
	C204.343994,228.020096 205.998779,229.691269 205.998993,237.219223 
	C206.001053,307.149841 206.000702,377.080444 206.004822,447.473602 
z"/>
<path fill="#333333" opacity="1.000000" stroke="none" 
	d="
M394.952148,52.230358 
	C401.001343,57.730652 406.876556,63.523228 412.909760,69.605881 
	C403.455322,79.356354 393.783844,88.757637 384.240814,98.287537 
	C345.810089,136.665497 307.291168,174.957001 269.132599,213.604065 
	C262.369324,220.453918 254.196747,221.702774 246.101883,216.761749 
	C225.549332,204.216736 204.470856,192.536255 183.770706,180.227524 
	C179.962387,177.962997 177.838806,178.530243 174.905960,181.482773 
	C146.610321,209.968430 118.188988,238.329300 89.780533,266.702759 
	C84.195999,272.280457 76.539284,272.780670 71.539909,268.019440 
	C66.385254,263.110321 66.010345,255.830688 70.919662,250.661514 
	C75.966133,245.347916 81.246765,240.256546 86.429848,235.072861 
	C112.934410,208.565231 139.439011,182.057648 165.947250,155.553711 
	C172.589035,148.912994 177.358017,148.146637 185.498749,152.824524 
	C207.536255,165.487946 229.539124,178.212448 251.477585,191.046295 
	C253.792938,192.400787 255.204224,192.343216 257.069214,190.472916 
	C302.947327,144.464691 348.866394,98.497314 394.952148,52.230358 
z"/>
<path fill="#FF700D" opacity="1.000000" stroke="none" 
	d="
M288.004150,447.455383 
	C267.316956,447.950226 246.626526,447.984222 225.470917,447.936066 
	C225.002747,397.872192 224.996979,347.890533 224.999390,297.908844 
	C224.999802,289.249359 227.192810,287.000244 235.557404,287.000092 
	C250.218704,286.999847 264.880005,286.989380 279.541290,287.004913 
	C286.132660,287.011871 287.994934,288.892639 287.995941,295.549988 
	C288.003571,346.031494 288.000610,396.513000 288.004150,447.455383 
z"/>
<path fill="#FF3131" opacity="1.000000" stroke="none" 
	d="
M125.001007,447.446167 
	C104.311806,447.954132 83.621765,448.002045 62.466400,447.976929 
	C62.000729,419.923218 61.997089,391.942566 62.002285,363.961914 
	C62.003635,356.702606 63.722172,355.004761 71.051521,355.001831 
	C86.207710,354.995758 101.363899,354.989441 116.520073,355.004974 
	C123.113152,355.011749 124.993019,356.904694 124.995529,363.543854 
	C125.006042,391.357941 125.000092,419.172058 125.001007,447.446167 
z"/>
</svg>